<svg width="1440" height="900" viewBox="0 0 1440 900" fill="none" xmlns="http://www.w3.org/2000/svg">
<g clip-path="url(#clip0_28_708)">
<rect width="1440" height="900" fill="#121215"/>
<g clip-path="url(#clip1_28_708)">
<mask id="path-1-inside-1_28_708" fill="white">
<path d="M0 0H720V900H0V0Z"/>
</mask>
<path d="M0 0H720V900H0V0Z" fill="#121215"/>
<g opacity="0.5" filter="url(#filter0_f_28_708)">
<path d="M1012.72 394.043C1012.72 433.919 983.239 470.023 935.579 496.152C887.919 522.285 822.084 538.448 749.358 538.448C676.632 538.448 610.796 522.285 563.136 496.152C515.476 470.019 486 433.919 486 394.043C486 354.168 515.476 318.064 563.136 291.935C610.796 265.801 676.632 249.639 749.358 249.639C822.084 249.639 887.919 265.801 935.579 291.935C983.239 318.068 1012.72 354.168 1012.72 394.043Z" fill="#633BBC"/>
</g>
<rect x="704" y="4" width="8" height="1" fill="white" fill-opacity="0.1"/>
<rect x="704" y="13" width="8" height="1" fill="white" fill-opacity="0.1"/>
<rect x="704" y="22" width="8" height="1" fill="white" fill-opacity="0.1"/>
<rect x="704" y="31" width="8" height="1" fill="white" fill-opacity="0.1"/>
<rect x="704" y="40" width="8" height="1" fill="white" fill-opacity="0.1"/>
<rect x="704" y="49" width="8" height="1" fill="white" fill-opacity="0.1"/>
<rect x="704" y="58" width="8" height="1" fill="white" fill-opacity="0.1"/>
<rect x="704" y="67" width="8" height="1" fill="white" fill-opacity="0.1"/>
<rect x="704" y="76" width="8" height="1" fill="white" fill-opacity="0.1"/>
<rect x="704" y="85" width="8" height="1" fill="white" fill-opacity="0.1"/>
<rect x="704" y="94" width="8" height="1" fill="white" fill-opacity="0.1"/>
<rect x="704" y="103" width="8" height="1" fill="white" fill-opacity="0.1"/>
<rect x="704" y="112" width="8" height="1" fill="white" fill-opacity="0.1"/>
<rect x="704" y="121" width="8" height="1" fill="white" fill-opacity="0.1"/>
<rect x="704" y="130" width="8" height="1" fill="white" fill-opacity="0.1"/>
<rect x="704" y="139" width="8" height="1" fill="white" fill-opacity="0.1"/>
<rect x="704" y="148" width="8" height="1" fill="white" fill-opacity="0.1"/>
<rect x="704" y="157" width="8" height="1" fill="white" fill-opacity="0.1"/>
<rect x="704" y="166" width="8" height="1" fill="white" fill-opacity="0.1"/>
<rect x="704" y="175" width="8" height="1" fill="white" fill-opacity="0.1"/>
<rect x="704" y="184" width="8" height="1" fill="white" fill-opacity="0.1"/>
<rect x="704" y="193" width="8" height="1" fill="white" fill-opacity="0.1"/>
<rect x="704" y="202" width="8" height="1" fill="white" fill-opacity="0.1"/>
<rect x="704" y="211" width="8" height="1" fill="white" fill-opacity="0.1"/>
<rect x="704" y="220" width="8" height="1" fill="white" fill-opacity="0.1"/>
<rect x="704" y="229" width="8" height="1" fill="white" fill-opacity="0.1"/>
<rect x="704" y="238" width="8" height="1" fill="white" fill-opacity="0.1"/>
<rect x="704" y="247" width="8" height="1" fill="white" fill-opacity="0.1"/>
<rect x="704" y="256" width="8" height="1" fill="white" fill-opacity="0.1"/>
<rect x="704" y="265" width="8" height="1" fill="white" fill-opacity="0.1"/>
<rect x="704" y="274" width="8" height="1" fill="white" fill-opacity="0.1"/>
<rect x="704" y="283" width="8" height="1" fill="white" fill-opacity="0.1"/>
<rect x="704" y="292" width="8" height="1" fill="white" fill-opacity="0.1"/>
<rect x="704" y="301" width="8" height="1" fill="white" fill-opacity="0.1"/>
<rect x="704" y="310" width="8" height="1" fill="white" fill-opacity="0.1"/>
<rect x="704" y="319" width="8" height="1" fill="white" fill-opacity="0.1"/>
<rect x="704" y="328" width="8" height="1" fill="white" fill-opacity="0.1"/>
<rect x="704" y="337" width="8" height="1" fill="white" fill-opacity="0.1"/>
<rect x="704" y="346" width="8" height="1" fill="white" fill-opacity="0.1"/>
<rect x="704" y="355" width="8" height="1" fill="white" fill-opacity="0.1"/>
<rect x="704" y="364" width="8" height="1" fill="white" fill-opacity="0.1"/>
<rect x="704" y="373" width="8" height="1" fill="white" fill-opacity="0.1"/>
<rect x="704" y="382" width="8" height="1" fill="white" fill-opacity="0.1"/>
<rect x="704" y="391" width="8" height="1" fill="white" fill-opacity="0.1"/>
<rect x="704" y="400" width="8" height="1" fill="white" fill-opacity="0.1"/>
<rect x="704" y="409" width="8" height="1" fill="white" fill-opacity="0.1"/>
<rect x="704" y="418" width="8" height="1" fill="white" fill-opacity="0.1"/>
<rect x="704" y="427" width="8" height="1" fill="white" fill-opacity="0.1"/>
<rect x="704" y="436" width="8" height="1" fill="white" fill-opacity="0.1"/>
<rect x="704" y="445" width="8" height="1" fill="white" fill-opacity="0.1"/>
<rect x="704" y="454" width="8" height="1" fill="white" fill-opacity="0.1"/>
<rect x="704" y="463" width="8" height="1" fill="white" fill-opacity="0.1"/>
<rect x="704" y="472" width="8" height="1" fill="white" fill-opacity="0.1"/>
<rect x="704" y="481" width="8" height="1" fill="white" fill-opacity="0.1"/>
<rect x="704" y="490" width="8" height="1" fill="white" fill-opacity="0.1"/>
<rect x="704" y="499" width="8" height="1" fill="white" fill-opacity="0.1"/>
<rect x="704" y="508" width="8" height="1" fill="white" fill-opacity="0.1"/>
<rect x="704" y="517" width="8" height="1" fill="white" fill-opacity="0.1"/>
<rect x="704" y="526" width="8" height="1" fill="white" fill-opacity="0.1"/>
<rect x="704" y="535" width="8" height="1" fill="white" fill-opacity="0.1"/>
<rect x="704" y="544" width="8" height="1" fill="white" fill-opacity="0.1"/>
<rect x="704" y="553" width="8" height="1" fill="white" fill-opacity="0.1"/>
<rect x="704" y="562" width="8" height="1" fill="white" fill-opacity="0.1"/>
<rect x="704" y="571" width="8" height="1" fill="white" fill-opacity="0.1"/>
<rect x="704" y="580" width="8" height="1" fill="white" fill-opacity="0.1"/>
<rect x="704" y="589" width="8" height="1" fill="white" fill-opacity="0.1"/>
<rect x="704" y="598" width="8" height="1" fill="white" fill-opacity="0.1"/>
<rect x="704" y="607" width="8" height="1" fill="white" fill-opacity="0.1"/>
<rect x="704" y="616" width="8" height="1" fill="white" fill-opacity="0.1"/>
<rect x="704" y="625" width="8" height="1" fill="white" fill-opacity="0.1"/>
<rect x="704" y="634" width="8" height="1" fill="white" fill-opacity="0.1"/>
<rect x="704" y="643" width="8" height="1" fill="white" fill-opacity="0.1"/>
<rect x="704" y="652" width="8" height="1" fill="white" fill-opacity="0.1"/>
<rect x="704" y="661" width="8" height="1" fill="white" fill-opacity="0.1"/>
<rect x="704" y="670" width="8" height="1" fill="white" fill-opacity="0.1"/>
<rect x="704" y="679" width="8" height="1" fill="white" fill-opacity="0.1"/>
<rect x="704" y="688" width="8" height="1" fill="white" fill-opacity="0.1"/>
<rect x="704" y="697" width="8" height="1" fill="white" fill-opacity="0.1"/>
<rect x="704" y="706" width="8" height="1" fill="white" fill-opacity="0.1"/>
<rect x="704" y="715" width="8" height="1" fill="white" fill-opacity="0.1"/>
<rect x="704" y="724" width="8" height="1" fill="white" fill-opacity="0.1"/>
<rect x="704" y="733" width="8" height="1" fill="white" fill-opacity="0.1"/>
<rect x="704" y="742" width="8" height="1" fill="white" fill-opacity="0.1"/>
<rect x="704" y="751" width="8" height="1" fill="white" fill-opacity="0.1"/>
<rect x="704" y="760" width="8" height="1" fill="white" fill-opacity="0.1"/>
<rect x="704" y="769" width="8" height="1" fill="white" fill-opacity="0.1"/>
<rect x="704" y="778" width="8" height="1" fill="white" fill-opacity="0.1"/>
<rect x="704" y="787" width="8" height="1" fill="white" fill-opacity="0.1"/>
<rect x="704" y="796" width="8" height="1" fill="white" fill-opacity="0.1"/>
<rect x="704" y="805" width="8" height="1" fill="white" fill-opacity="0.1"/>
<rect x="704" y="814" width="8" height="1" fill="white" fill-opacity="0.1"/>
<rect x="704" y="823" width="8" height="1" fill="white" fill-opacity="0.1"/>
<rect x="704" y="832" width="8" height="1" fill="white" fill-opacity="0.1"/>
<rect x="704" y="841" width="8" height="1" fill="white" fill-opacity="0.1"/>
<rect x="704" y="850" width="8" height="1" fill="white" fill-opacity="0.1"/>
<rect x="704" y="859" width="8" height="1" fill="white" fill-opacity="0.1"/>
<rect x="704" y="868" width="8" height="1" fill="white" fill-opacity="0.1"/>
<rect x="704" y="877" width="8" height="1" fill="white" fill-opacity="0.1"/>
<rect x="704" y="886" width="8" height="1" fill="white" fill-opacity="0.1"/>
<rect x="704" y="895" width="8" height="1" fill="white" fill-opacity="0.1"/>
<path d="M18.4652 190.806C18.3141 189.598 18.1932 189.477 16.9542 189.296C18.163 189.145 18.2839 189.024 18.4652 187.786C18.6163 188.994 18.7372 189.114 19.9761 189.296C18.7674 189.447 18.6465 189.598 18.4652 190.806Z" fill="white" fill-opacity="0.1"/>
<path d="M31.7817 24.3301C31.6306 23.122 31.5098 23.0012 30.2708 22.8199C31.4795 22.6688 31.6004 22.548 31.7817 21.3097C31.9328 22.5179 32.0537 22.6386 33.2927 22.8199C32.0839 22.9708 31.963 23.122 31.7817 24.3301Z" fill="white" fill-opacity="0.1"/>
<path d="M117.229 129.383C117.078 128.174 116.957 128.054 115.718 127.872C116.927 127.721 117.048 127.6 117.229 126.362C117.38 127.57 117.501 127.691 118.74 127.872C117.531 128.023 117.411 128.174 117.229 129.383Z" fill="white" fill-opacity="0.1"/>
<path d="M208.951 38.7029C208.951 39.32 208.45 39.8205 207.832 39.8205C207.215 39.8205 206.714 39.32 206.714 38.7029C206.714 38.0856 207.215 37.5854 207.832 37.5854C208.45 37.5854 208.951 38.0856 208.951 38.7029Z" fill="white" fill-opacity="0.1"/>
<path d="M54.8953 89.2197C54.8953 89.8368 54.3946 90.3373 53.777 90.3373C53.1597 90.3373 52.6589 89.8368 52.6589 89.2197C52.6589 88.6024 53.1597 88.1022 53.777 88.1022C54.3946 88.1022 54.8953 88.6024 54.8953 89.2197Z" fill="white" fill-opacity="0.1"/>
<path d="M60.2495 192.583C60.2495 193.2 59.7491 193.7 59.1315 193.7C58.5141 193.7 58.0134 193.2 58.0134 192.583C58.0134 191.965 58.5141 191.465 59.1315 191.465C59.7491 191.465 60.2495 191.965 60.2495 192.583Z" fill="white" fill-opacity="0.1"/>
<path d="M75.7235 132.287C75.7235 132.904 75.2231 133.405 74.6055 133.405C73.9879 133.405 73.4874 132.904 73.4874 132.287C73.4874 131.67 73.9879 131.17 74.6055 131.17C75.2231 131.17 75.7235 131.67 75.7235 132.287Z" fill="white" fill-opacity="0.1"/>
<path d="M276.332 22.1235C275.553 22.9019 274.29 22.9019 273.511 22.1235C272.732 21.3449 272.732 20.0827 273.511 19.3043C274.29 18.5257 275.553 18.5257 276.332 19.3043C277.111 20.0827 277.111 21.3449 276.332 22.1235Z" fill="white" fill-opacity="0.15"/>
<path d="M157.904 89.3797C157.904 89.9968 157.403 90.4972 156.786 90.4972C156.168 90.4972 155.668 89.9968 155.668 89.3797C155.668 88.7624 156.168 88.2622 156.786 88.2622C157.403 88.2622 157.904 88.7624 157.904 89.3797Z" fill="white" fill-opacity="0.15"/>
<path d="M95.405 15.0826C95.2539 13.8744 95.133 13.7536 93.894 13.5723C95.1028 13.4212 95.2237 13.3004 95.405 12.0621C95.5561 13.2703 95.677 13.3911 96.916 13.5723C95.7072 13.7232 95.5863 13.8744 95.405 15.0826Z" fill="white" fill-opacity="0.1"/>
<path d="M124.196 93.1308C124.044 91.9226 123.924 91.8019 122.685 91.6206C123.893 91.4695 124.014 91.3487 124.196 90.1104C124.347 91.3186 124.468 91.4393 125.706 91.6206C124.498 91.7715 124.377 91.9226 124.196 93.1308Z" fill="white" fill-opacity="0.1"/>
<path d="M445.223 395.39C445.374 396.598 445.495 396.719 446.734 396.9C445.525 397.051 445.405 397.172 445.223 398.41C445.072 397.202 444.951 397.082 443.712 396.9C444.921 396.749 445.042 396.598 445.223 395.39Z" fill="white" fill-opacity="0.1"/>
<path d="M528.821 151.605C528.972 152.813 529.093 152.933 530.332 153.115C529.124 153.266 529.003 153.387 528.821 154.625C528.67 153.417 528.549 153.296 527.31 153.115C528.519 152.964 528.64 152.813 528.821 151.605Z" fill="white" fill-opacity="0.1"/>
<path d="M515.505 318.08C515.656 319.289 515.777 319.409 517.016 319.591C515.807 319.742 515.686 319.862 515.505 321.101C515.354 319.893 515.233 319.772 513.994 319.591C515.202 319.44 515.323 319.289 515.505 318.08Z" fill="white" fill-opacity="0.1"/>
<path d="M430.057 213.028C430.208 214.236 430.329 214.357 431.568 214.538C430.359 214.689 430.238 214.81 430.057 216.048C429.906 214.84 429.785 214.719 428.546 214.538C429.755 214.387 429.876 214.236 430.057 213.028Z" fill="white" fill-opacity="0.1"/>
<path d="M554.05 397.293C554.05 396.676 554.551 396.175 555.168 396.175C555.786 396.175 556.286 396.676 556.286 397.293C556.286 397.91 555.786 398.41 555.168 398.41C554.551 398.41 554.05 397.91 554.05 397.293Z" fill="white" fill-opacity="0.1"/>
<path d="M338.336 303.708C338.336 303.09 338.836 302.59 339.454 302.59C340.071 302.59 340.572 303.09 340.572 303.708C340.572 304.325 340.071 304.825 339.454 304.825C338.836 304.825 338.336 304.325 338.336 303.708Z" fill="white" fill-opacity="0.1"/>
<path d="M492.391 253.191C492.391 252.574 492.892 252.073 493.509 252.073C494.127 252.073 494.627 252.574 494.627 253.191C494.627 253.808 494.127 254.308 493.509 254.308C492.892 254.308 492.391 253.808 492.391 253.191Z" fill="white" fill-opacity="0.1"/>
<path d="M487.037 149.828C487.037 149.211 487.537 148.71 488.155 148.71C488.772 148.71 489.273 149.211 489.273 149.828C489.273 150.445 488.772 150.945 488.155 150.945C487.537 150.945 487.037 150.445 487.037 149.828Z" fill="white" fill-opacity="0.1"/>
<path d="M471.563 210.123C471.563 209.506 472.063 209.006 472.681 209.006C473.298 209.006 473.799 209.506 473.799 210.123C473.799 210.741 473.298 211.241 472.681 211.241C472.063 211.241 471.563 210.741 471.563 210.123Z" fill="white" fill-opacity="0.1"/>
<path d="M264.899 385.346C265.906 384.9 267.084 385.355 267.53 386.362C267.976 387.369 267.521 388.546 266.513 388.992C265.506 389.437 264.328 388.983 263.882 387.976C263.436 386.969 263.892 385.792 264.899 385.346Z" fill="white" fill-opacity="0.15"/>
<path d="M419.071 368.674C419.071 367.573 419.964 366.681 421.066 366.681C422.167 366.681 423.06 367.573 423.06 368.674C423.06 369.775 422.167 370.668 421.066 370.668C419.964 370.668 419.071 369.775 419.071 368.674Z" fill="white" fill-opacity="0.15"/>
<path d="M270.955 320.287C271.734 319.509 272.996 319.509 273.775 320.287C274.554 321.066 274.554 322.328 273.775 323.106C272.996 323.885 271.734 323.885 270.955 323.106C270.176 322.328 270.176 321.066 270.955 320.287Z" fill="white" fill-opacity="0.15"/>
<path d="M296.167 369.55C296.167 368.933 296.667 368.433 297.285 368.433C297.903 368.433 298.403 368.933 298.403 369.55C298.403 370.168 297.903 370.668 297.285 370.668C296.667 370.668 296.167 370.168 296.167 369.55Z" fill="white" fill-opacity="0.15"/>
<path d="M389.383 253.031C389.383 252.414 389.883 251.913 390.501 251.913C391.118 251.913 391.619 252.414 391.619 253.031C391.619 253.648 391.118 254.148 390.501 254.148C389.883 254.148 389.383 253.648 389.383 253.031Z" fill="white" fill-opacity="0.15"/>
<path d="M451.881 327.328C452.032 328.536 452.153 328.657 453.392 328.838C452.184 328.989 452.063 329.11 451.881 330.348C451.73 329.14 451.609 329.019 450.37 328.838C451.579 328.687 451.7 328.536 451.881 327.328Z" fill="white" fill-opacity="0.1"/>
<path d="M346.521 375.417C346.672 376.625 346.793 376.746 348.032 376.927C346.823 377.078 346.702 377.199 346.521 378.437C346.37 377.229 346.249 377.108 345.01 376.927C346.219 376.776 346.34 376.625 346.521 375.417Z" fill="white" fill-opacity="0.1"/>
<path d="M423.091 249.28C423.242 250.488 423.363 250.609 424.602 250.79C423.393 250.941 423.272 251.062 423.091 252.3C422.94 251.092 422.819 250.971 421.58 250.79C422.789 250.639 422.91 250.488 423.091 249.28Z" fill="white" fill-opacity="0.1"/>
<path d="M490.783 364.319C490.934 365.528 491.055 365.648 492.294 365.83C491.085 365.981 490.964 366.102 490.783 367.34C490.632 366.132 490.511 366.011 489.272 365.83C490.481 365.679 490.602 365.528 490.783 364.319Z" fill="white" fill-opacity="0.1"/>
<path d="M582.659 598.202C582.81 596.994 582.931 596.873 584.169 596.692C582.961 596.541 582.84 596.42 582.659 595.181C582.508 596.39 582.387 596.51 581.148 596.692C582.356 596.843 582.477 596.994 582.659 598.202Z" fill="white" fill-opacity="0.1"/>
<path d="M666.303 740.362C666.454 739.154 666.574 739.033 667.813 738.852C666.605 738.7 666.484 738.58 666.303 737.341C666.151 738.55 666.031 738.67 664.792 738.852C666 739.003 666.121 739.154 666.303 740.362Z" fill="white" fill-opacity="0.1"/>
<path d="M570.063 732.025C570.214 730.816 570.335 730.696 571.574 730.514C570.365 730.363 570.244 730.243 570.063 729.004C569.912 730.212 569.791 730.333 568.552 730.514C569.761 730.665 569.881 730.816 570.063 732.025Z" fill="white" fill-opacity="0.1"/>
<path d="M405.231 640.139C405.382 638.931 405.503 638.81 406.742 638.629C405.533 638.478 405.413 638.357 405.231 637.119C405.08 638.327 404.959 638.448 403.72 638.629C404.929 638.78 405.05 638.931 405.231 640.139Z" fill="white" fill-opacity="0.1"/>
<path d="M493.944 544.196C494.095 542.988 494.216 542.867 495.455 542.686C494.246 542.534 494.125 542.414 493.944 541.175C493.793 542.383 493.672 542.504 492.433 542.686C493.642 542.836 493.763 542.988 493.944 544.196Z" fill="white" fill-opacity="0.1"/>
<path d="M513.153 590.203C513.153 590.82 513.653 591.32 514.271 591.32C514.888 591.32 515.389 590.82 515.389 590.203C515.389 589.585 514.888 589.085 514.271 589.085C513.653 589.085 513.153 589.585 513.153 590.203Z" fill="white" fill-opacity="0.1"/>
<path d="M347.061 698.068C347.061 698.685 347.561 699.185 348.179 699.185C348.797 699.185 349.297 698.685 349.297 698.068C349.297 697.45 348.797 696.95 348.179 696.95C347.561 696.95 347.061 697.45 347.061 698.068Z" fill="white" fill-opacity="0.1"/>
<path d="M603.774 622.607C603.774 623.224 604.274 623.725 604.892 623.725C605.509 623.725 606.01 623.224 606.01 622.607C606.01 621.99 605.509 621.49 604.892 621.49C604.274 621.49 603.774 621.99 603.774 622.607Z" fill="white" fill-opacity="0.1"/>
<path d="M392.595 540.118C392.595 540.735 393.095 541.235 393.713 541.235C394.33 541.235 394.831 540.735 394.831 540.118C394.831 539.5 394.33 539 393.713 539C393.095 539 392.595 539.5 392.595 540.118Z" fill="white" fill-opacity="0.1"/>
<path d="M630.407 665.886C630.407 666.503 630.907 667.003 631.525 667.003C632.142 667.003 632.643 666.503 632.643 665.886C632.643 665.269 632.142 664.768 631.525 664.768C630.907 664.768 630.407 665.269 630.407 665.886Z" fill="white" fill-opacity="0.1"/>
<path d="M595.618 755.133C595.618 755.751 596.118 756.251 596.736 756.251C597.353 756.251 597.854 755.751 597.854 755.133C597.854 754.516 597.353 754.016 596.736 754.016C596.118 754.016 595.618 754.516 595.618 755.133Z" fill="white" fill-opacity="0.1"/>
<path d="M575.599 646.651C575.599 647.268 576.1 647.769 576.717 647.769C577.335 647.769 577.835 647.268 577.835 646.651C577.835 646.034 577.335 645.534 576.717 645.534C576.1 645.534 575.599 646.034 575.599 646.651Z" fill="white" fill-opacity="0.1"/>
<path d="M591.275 690.136C592.282 690.582 593.46 690.127 593.906 689.12C594.352 688.114 593.897 686.936 592.89 686.49C591.883 686.045 590.704 686.5 590.259 687.506C589.813 688.513 590.268 689.69 591.275 690.136Z" fill="white" fill-opacity="0.15"/>
<path d="M444.571 684.59C444.571 685.691 445.464 686.584 446.565 686.584C447.667 686.584 448.56 685.691 448.56 684.59C448.56 683.489 447.667 682.597 446.565 682.597C445.464 682.597 444.571 683.489 444.571 684.59Z" fill="white" fill-opacity="0.15"/>
<path d="M510.711 651.624C511.489 652.402 512.752 652.402 513.531 651.624C514.31 650.845 514.31 649.583 513.531 648.805C512.752 648.026 511.489 648.026 510.71 648.805C509.932 649.583 509.932 650.845 510.711 651.624Z" fill="white" fill-opacity="0.15"/>
<path d="M582.627 548.997C582.627 549.614 583.128 550.114 583.745 550.114C584.363 550.114 584.864 549.614 584.864 548.997C584.864 548.38 584.363 547.879 583.745 547.879C583.128 547.879 582.627 548.38 582.627 548.997Z" fill="white" fill-opacity="0.15"/>
<path d="M460.251 580.068C460.251 580.685 460.752 581.186 461.369 581.186C461.987 581.186 462.488 580.685 462.488 580.068C462.488 579.451 461.987 578.951 461.369 578.951C460.752 578.951 460.251 579.451 460.251 580.068Z" fill="white" fill-opacity="0.15"/>
<path d="M448.674 754.061C448.825 752.852 448.946 752.732 450.185 752.55C448.976 752.399 448.855 752.278 448.674 751.04C448.523 752.248 448.402 752.369 447.163 752.55C448.372 752.701 448.493 752.852 448.674 754.061Z" fill="white" fill-opacity="0.1"/>
<path d="M361.149 611.148C361.3 609.94 361.421 609.819 362.66 609.638C361.451 609.487 361.33 609.366 361.149 608.128C360.998 609.336 360.877 609.457 359.638 609.638C360.847 609.789 360.967 609.94 361.149 611.148Z" fill="white" fill-opacity="0.1"/>
<path d="M305.511 663.768C305.662 662.56 305.782 662.439 307.021 662.258C305.813 662.107 305.692 661.986 305.511 660.747C305.359 661.956 305.239 662.076 304 662.258C305.208 662.409 305.329 662.56 305.511 663.768Z" fill="white" fill-opacity="0.1"/>
<path d="M391.3 775.957C391.451 777.165 391.572 777.286 392.811 777.467C391.603 777.618 391.482 777.739 391.3 778.977C391.149 777.769 391.028 777.648 389.789 777.467C390.998 777.316 391.119 777.165 391.3 775.957Z" fill="white" fill-opacity="0.1"/>
<path d="M295.061 784.294C295.212 785.502 295.333 785.623 296.572 785.804C295.363 785.956 295.242 786.076 295.061 787.315C294.909 786.106 294.789 785.986 293.55 785.804C294.758 785.654 294.879 785.502 295.061 784.294Z" fill="white" fill-opacity="0.1"/>
<path d="M95.7639 718C95.915 719.208 96.0359 719.329 97.2749 719.51C96.0661 719.661 95.9453 719.782 95.7639 721.02C95.6129 719.812 95.492 719.691 94.253 719.51C95.4618 719.359 95.5826 719.208 95.7639 718Z" fill="white" fill-opacity="0.1"/>
<path d="M72.0589 818.251C72.0589 817.634 72.5594 817.134 73.177 817.134C73.7946 817.134 74.295 817.634 74.295 818.251C74.295 818.869 73.7946 819.369 73.177 819.369C72.5594 819.369 72.0589 818.869 72.0589 818.251Z" fill="white" fill-opacity="0.1"/>
<path d="M328.771 893.712C328.771 893.095 329.272 892.594 329.89 892.594C330.507 892.594 331.008 893.095 331.008 893.712C331.008 894.329 330.507 894.829 329.89 894.829C329.272 894.829 328.771 894.329 328.771 893.712Z" fill="white" fill-opacity="0.1"/>
<path d="M355.404 850.433C355.404 849.816 355.905 849.315 356.523 849.315C357.14 849.315 357.641 849.816 357.641 850.433C357.641 851.05 357.14 851.55 356.523 851.55C355.905 851.55 355.404 851.05 355.404 850.433Z" fill="white" fill-opacity="0.1"/>
<path d="M320.616 761.185C320.616 760.568 321.116 760.068 321.734 760.068C322.351 760.068 322.852 760.568 322.852 761.185C322.852 761.803 322.351 762.303 321.734 762.303C321.116 762.303 320.616 761.803 320.616 761.185Z" fill="white" fill-opacity="0.1"/>
<path d="M300.597 869.668C300.597 869.05 301.098 868.55 301.715 868.55C302.333 868.55 302.833 869.05 302.833 869.668C302.833 870.285 302.333 870.785 301.715 870.785C301.098 870.785 300.597 870.285 300.597 869.668Z" fill="white" fill-opacity="0.1"/>
<path d="M316.273 826.183C317.28 825.737 318.458 826.192 318.904 827.199C319.35 828.205 318.895 829.383 317.887 829.828C316.88 830.274 315.702 829.819 315.256 828.813C314.81 827.806 315.266 826.629 316.273 826.183Z" fill="white" fill-opacity="0.15"/>
<path d="M169.569 831.728C169.569 830.627 170.462 829.735 171.563 829.735C172.665 829.735 173.558 830.627 173.558 831.728C173.558 832.829 172.665 833.722 171.563 833.722C170.462 833.722 169.569 832.829 169.569 831.728Z" fill="white" fill-opacity="0.15"/>
<path d="M235.708 864.695C236.487 863.917 237.75 863.917 238.529 864.695C239.308 865.474 239.308 866.736 238.529 867.514C237.75 868.293 236.487 868.293 235.708 867.514C234.93 866.736 234.93 865.474 235.708 864.695Z" fill="white" fill-opacity="0.15"/>
<path d="M173.672 762.258C173.823 763.466 173.943 763.587 175.182 763.769C173.974 763.92 173.853 764.04 173.672 765.279C173.52 764.071 173.4 763.95 172.161 763.769C173.369 763.618 173.49 763.466 173.672 762.258Z" fill="white" fill-opacity="0.1"/>
<path d="M32.5106 752.031C32.6617 753.239 32.7826 753.36 34.0216 753.541C32.8128 753.692 32.692 753.813 32.5106 755.052C32.3596 753.843 32.2387 753.723 30.9997 753.541C32.2085 753.39 32.3293 753.239 32.5106 752.031Z" fill="white" fill-opacity="0.1"/>
</g>
<path d="M719 0V900H721V0H719Z" fill="url(#paint0_radial_28_708)" mask="url(#path-1-inside-1_28_708)"/>
<path d="M768.465 179.806C768.314 178.598 768.193 178.477 766.954 178.296C768.163 178.145 768.284 178.024 768.465 176.786C768.616 177.994 768.737 178.114 769.976 178.296C768.767 178.447 768.646 178.598 768.465 179.806Z" fill="white" fill-opacity="0.1"/>
<path d="M781.782 13.3301C781.631 12.122 781.51 12.0012 780.271 11.8199C781.48 11.6688 781.6 11.548 781.782 10.3097C781.933 11.5179 782.054 11.6386 783.293 11.8199C782.084 11.9708 781.963 12.122 781.782 13.3301Z" fill="white" fill-opacity="0.1"/>
<path d="M867.229 118.383C867.078 117.174 866.957 117.054 865.718 116.872C866.927 116.721 867.048 116.6 867.229 115.362C867.38 116.57 867.501 116.691 868.74 116.872C867.531 117.023 867.411 117.174 867.229 118.383Z" fill="white" fill-opacity="0.1"/>
<path d="M958.951 27.7029C958.951 28.32 958.45 28.8205 957.832 28.8205C957.215 28.8205 956.714 28.32 956.714 27.7029C956.714 27.0856 957.215 26.5854 957.832 26.5854C958.45 26.5854 958.951 27.0856 958.951 27.7029Z" fill="white" fill-opacity="0.1"/>
<path d="M804.895 78.2197C804.895 78.8368 804.395 79.3373 803.777 79.3373C803.16 79.3373 802.659 78.8368 802.659 78.2197C802.659 77.6024 803.16 77.1022 803.777 77.1022C804.395 77.1022 804.895 77.6024 804.895 78.2197Z" fill="white" fill-opacity="0.1"/>
<path d="M810.25 181.583C810.25 182.2 809.749 182.7 809.132 182.7C808.514 182.7 808.014 182.2 808.014 181.583C808.014 180.965 808.514 180.465 809.132 180.465C809.749 180.465 810.25 180.965 810.25 181.583Z" fill="white" fill-opacity="0.1"/>
<path d="M825.724 121.287C825.724 121.904 825.223 122.405 824.606 122.405C823.988 122.405 823.488 121.904 823.488 121.287C823.488 120.67 823.988 120.17 824.606 120.17C825.223 120.17 825.724 120.67 825.724 121.287Z" fill="white" fill-opacity="0.1"/>
<path d="M1026.33 11.1235C1025.55 11.9018 1024.29 11.9018 1023.51 11.1235C1022.73 10.3449 1022.73 9.08267 1023.51 8.30432C1024.29 7.5257 1025.55 7.5257 1026.33 8.30432C1027.11 9.08267 1027.11 10.3449 1026.33 11.1235Z" fill="white" fill-opacity="0.15"/>
<path d="M907.904 78.3797C907.904 78.9968 907.403 79.4972 906.786 79.4972C906.168 79.4972 905.668 78.9968 905.668 78.3797C905.668 77.7624 906.168 77.2622 906.786 77.2622C907.403 77.2622 907.904 77.7624 907.904 78.3797Z" fill="white" fill-opacity="0.15"/>
<path d="M845.405 4.08257C845.254 2.87439 845.133 2.75363 843.894 2.57235C845.103 2.4212 845.224 2.30043 845.405 1.06213C845.556 2.27031 845.677 2.39107 846.916 2.57235C845.707 2.72324 845.586 2.87439 845.405 4.08257Z" fill="white" fill-opacity="0.1"/>
<path d="M874.196 82.1308C874.044 80.9227 873.924 80.8019 872.685 80.6206C873.893 80.4695 874.014 80.3487 874.196 79.1104C874.347 80.3186 874.468 80.4393 875.706 80.6206C874.498 80.7715 874.377 80.9227 874.196 82.1308Z" fill="white" fill-opacity="0.1"/>
<path d="M1195.22 384.39C1195.37 385.598 1195.5 385.719 1196.73 385.9C1195.53 386.051 1195.4 386.172 1195.22 387.411C1195.07 386.202 1194.95 386.082 1193.71 385.9C1194.92 385.749 1195.04 385.598 1195.22 384.39Z" fill="white" fill-opacity="0.1"/>
<path d="M1278.82 140.605C1278.97 141.813 1279.09 141.934 1280.33 142.115C1279.12 142.266 1279 142.387 1278.82 143.625C1278.67 142.417 1278.55 142.296 1277.31 142.115C1278.52 141.964 1278.64 141.813 1278.82 140.605Z" fill="white" fill-opacity="0.1"/>
<path d="M1265.5 307.08C1265.66 308.289 1265.78 308.409 1267.02 308.591C1265.81 308.742 1265.69 308.862 1265.5 310.101C1265.35 308.893 1265.23 308.772 1263.99 308.591C1265.2 308.44 1265.32 308.289 1265.5 307.08Z" fill="white" fill-opacity="0.1"/>
<path d="M1180.06 202.028C1180.21 203.236 1180.33 203.357 1181.57 203.538C1180.36 203.689 1180.24 203.81 1180.06 205.048C1179.91 203.84 1179.78 203.719 1178.55 203.538C1179.75 203.387 1179.88 203.236 1180.06 202.028Z" fill="white" fill-opacity="0.1"/>
<path d="M1304.05 386.293C1304.05 385.676 1304.55 385.175 1305.17 385.175C1305.79 385.175 1306.29 385.676 1306.29 386.293C1306.29 386.91 1305.79 387.411 1305.17 387.411C1304.55 387.411 1304.05 386.91 1304.05 386.293Z" fill="white" fill-opacity="0.1"/>
<path d="M1088.34 292.708C1088.34 292.091 1088.84 291.59 1089.45 291.59C1090.07 291.59 1090.57 292.091 1090.57 292.708C1090.57 293.325 1090.07 293.825 1089.45 293.825C1088.84 293.825 1088.34 293.325 1088.34 292.708Z" fill="white" fill-opacity="0.1"/>
<path d="M1242.39 242.191C1242.39 241.574 1242.89 241.073 1243.51 241.073C1244.13 241.073 1244.63 241.574 1244.63 242.191C1244.63 242.808 1244.13 243.308 1243.51 243.308C1242.89 243.308 1242.39 242.808 1242.39 242.191Z" fill="white" fill-opacity="0.1"/>
<path d="M1237.04 138.828C1237.04 138.211 1237.54 137.71 1238.15 137.71C1238.77 137.71 1239.27 138.211 1239.27 138.828C1239.27 139.445 1238.77 139.946 1238.15 139.946C1237.54 139.946 1237.04 139.445 1237.04 138.828Z" fill="white" fill-opacity="0.1"/>
<path d="M1221.56 199.123C1221.56 198.506 1222.06 198.006 1222.68 198.006C1223.3 198.006 1223.8 198.506 1223.8 199.123C1223.8 199.741 1223.3 200.241 1222.68 200.241C1222.06 200.241 1221.56 199.741 1221.56 199.123Z" fill="white" fill-opacity="0.1"/>
<path d="M1014.9 374.346C1015.91 373.9 1017.08 374.355 1017.53 375.362C1017.98 376.369 1017.52 377.546 1016.51 377.992C1015.51 378.437 1014.33 377.983 1013.88 376.976C1013.44 375.969 1013.89 374.792 1014.9 374.346Z" fill="white" fill-opacity="0.15"/>
<path d="M1169.07 357.674C1169.07 356.573 1169.96 355.681 1171.07 355.681C1172.17 355.681 1173.06 356.573 1173.06 357.674C1173.06 358.775 1172.17 359.668 1171.07 359.668C1169.96 359.668 1169.07 358.775 1169.07 357.674Z" fill="white" fill-opacity="0.15"/>
<path d="M1020.95 309.287C1021.73 308.509 1023 308.509 1023.77 309.287C1024.55 310.066 1024.55 311.328 1023.77 312.106C1023 312.885 1021.73 312.885 1020.95 312.106C1020.18 311.328 1020.18 310.066 1020.95 309.287Z" fill="white" fill-opacity="0.15"/>
<path d="M1046.17 358.55C1046.17 357.933 1046.67 357.433 1047.28 357.433C1047.9 357.433 1048.4 357.933 1048.4 358.55C1048.4 359.168 1047.9 359.668 1047.28 359.668C1046.67 359.668 1046.17 359.168 1046.17 358.55Z" fill="white" fill-opacity="0.15"/>
<path d="M1139.38 242.031C1139.38 241.414 1139.88 240.913 1140.5 240.913C1141.12 240.913 1141.62 241.414 1141.62 242.031C1141.62 242.648 1141.12 243.148 1140.5 243.148C1139.88 243.148 1139.38 242.648 1139.38 242.031Z" fill="white" fill-opacity="0.15"/>
<path d="M1201.88 316.328C1202.03 317.536 1202.15 317.657 1203.39 317.838C1202.18 317.989 1202.06 318.11 1201.88 319.348C1201.73 318.14 1201.61 318.019 1200.37 317.838C1201.58 317.687 1201.7 317.536 1201.88 316.328Z" fill="white" fill-opacity="0.1"/>
<path d="M1096.52 364.417C1096.67 365.625 1096.79 365.746 1098.03 365.927C1096.82 366.078 1096.7 366.199 1096.52 367.437C1096.37 366.229 1096.25 366.108 1095.01 365.927C1096.22 365.776 1096.34 365.625 1096.52 364.417Z" fill="white" fill-opacity="0.1"/>
<path d="M1173.09 238.28C1173.24 239.488 1173.36 239.609 1174.6 239.79C1173.39 239.941 1173.27 240.062 1173.09 241.3C1172.94 240.092 1172.82 239.971 1171.58 239.79C1172.79 239.639 1172.91 239.488 1173.09 238.28Z" fill="white" fill-opacity="0.1"/>
<path d="M1240.78 353.319C1240.93 354.528 1241.05 354.648 1242.29 354.83C1241.08 354.981 1240.96 355.102 1240.78 356.34C1240.63 355.132 1240.51 355.011 1239.27 354.83C1240.48 354.679 1240.6 354.528 1240.78 353.319Z" fill="white" fill-opacity="0.1"/>
<path d="M1332.66 587.202C1332.81 585.994 1332.93 585.873 1334.17 585.692C1332.96 585.541 1332.84 585.42 1332.66 584.181C1332.51 585.39 1332.39 585.51 1331.15 585.692C1332.36 585.843 1332.48 585.994 1332.66 587.202Z" fill="white" fill-opacity="0.1"/>
<path d="M1416.3 729.362C1416.45 728.154 1416.57 728.033 1417.81 727.852C1416.6 727.7 1416.48 727.58 1416.3 726.341C1416.15 727.55 1416.03 727.67 1414.79 727.852C1416 728.003 1416.12 728.154 1416.3 729.362Z" fill="white" fill-opacity="0.1"/>
<path d="M1320.06 721.025C1320.21 719.816 1320.33 719.696 1321.57 719.514C1320.36 719.363 1320.24 719.243 1320.06 718.004C1319.91 719.212 1319.79 719.333 1318.55 719.514C1319.76 719.665 1319.88 719.816 1320.06 721.025Z" fill="white" fill-opacity="0.1"/>
<path d="M1155.23 629.139C1155.38 627.931 1155.5 627.81 1156.74 627.629C1155.53 627.478 1155.41 627.357 1155.23 626.119C1155.08 627.327 1154.96 627.448 1153.72 627.629C1154.93 627.78 1155.05 627.931 1155.23 629.139Z" fill="white" fill-opacity="0.1"/>
<path d="M1243.94 533.196C1244.09 531.988 1244.22 531.867 1245.45 531.686C1244.25 531.534 1244.13 531.414 1243.94 530.175C1243.79 531.383 1243.67 531.504 1242.43 531.686C1243.64 531.836 1243.76 531.988 1243.94 533.196Z" fill="white" fill-opacity="0.1"/>
<path d="M1263.15 579.203C1263.15 579.82 1263.65 580.32 1264.27 580.32C1264.89 580.32 1265.39 579.82 1265.39 579.203C1265.39 578.585 1264.89 578.085 1264.27 578.085C1263.65 578.085 1263.15 578.585 1263.15 579.203Z" fill="white" fill-opacity="0.1"/>
<path d="M1097.06 687.068C1097.06 687.685 1097.56 688.185 1098.18 688.185C1098.8 688.185 1099.3 687.685 1099.3 687.068C1099.3 686.45 1098.8 685.95 1098.18 685.95C1097.56 685.95 1097.06 686.45 1097.06 687.068Z" fill="white" fill-opacity="0.1"/>
<path d="M1353.77 611.607C1353.77 612.224 1354.27 612.725 1354.89 612.725C1355.51 612.725 1356.01 612.224 1356.01 611.607C1356.01 610.99 1355.51 610.49 1354.89 610.49C1354.27 610.49 1353.77 610.99 1353.77 611.607Z" fill="white" fill-opacity="0.1"/>
<path d="M1142.59 529.118C1142.59 529.735 1143.1 530.235 1143.71 530.235C1144.33 530.235 1144.83 529.735 1144.83 529.118C1144.83 528.5 1144.33 528 1143.71 528C1143.1 528 1142.59 528.5 1142.59 529.118Z" fill="white" fill-opacity="0.1"/>
<path d="M1380.41 654.886C1380.41 655.503 1380.91 656.003 1381.53 656.003C1382.14 656.003 1382.64 655.503 1382.64 654.886C1382.64 654.269 1382.14 653.768 1381.53 653.768C1380.91 653.768 1380.41 654.269 1380.41 654.886Z" fill="white" fill-opacity="0.1"/>
<path d="M1345.62 744.133C1345.62 744.751 1346.12 745.251 1346.74 745.251C1347.35 745.251 1347.85 744.751 1347.85 744.133C1347.85 743.516 1347.35 743.016 1346.74 743.016C1346.12 743.016 1345.62 743.516 1345.62 744.133Z" fill="white" fill-opacity="0.1"/>
<path d="M1325.6 635.651C1325.6 636.268 1326.1 636.769 1326.72 636.769C1327.33 636.769 1327.84 636.268 1327.84 635.651C1327.84 635.034 1327.33 634.534 1326.72 634.534C1326.1 634.534 1325.6 635.034 1325.6 635.651Z" fill="white" fill-opacity="0.1"/>
<path d="M1341.28 679.136C1342.28 679.582 1343.46 679.127 1343.91 678.12C1344.35 677.114 1343.9 675.936 1342.89 675.49C1341.88 675.045 1340.7 675.5 1340.26 676.506C1339.81 677.513 1340.27 678.69 1341.28 679.136Z" fill="white" fill-opacity="0.15"/>
<path d="M1194.57 673.59C1194.57 674.691 1195.46 675.584 1196.57 675.584C1197.67 675.584 1198.56 674.691 1198.56 673.59C1198.56 672.489 1197.67 671.597 1196.57 671.597C1195.46 671.597 1194.57 672.489 1194.57 673.59Z" fill="white" fill-opacity="0.15"/>
<path d="M1260.71 640.624C1261.49 641.402 1262.75 641.402 1263.53 640.624C1264.31 639.845 1264.31 638.583 1263.53 637.805C1262.75 637.026 1261.49 637.026 1260.71 637.805C1259.93 638.583 1259.93 639.845 1260.71 640.624Z" fill="white" fill-opacity="0.15"/>
<path d="M1332.63 537.997C1332.63 538.614 1333.13 539.114 1333.75 539.114C1334.36 539.114 1334.86 538.614 1334.86 537.997C1334.86 537.38 1334.36 536.879 1333.75 536.879C1333.13 536.879 1332.63 537.38 1332.63 537.997Z" fill="white" fill-opacity="0.15"/>
<path d="M1210.25 569.068C1210.25 569.685 1210.75 570.186 1211.37 570.186C1211.99 570.186 1212.49 569.685 1212.49 569.068C1212.49 568.451 1211.99 567.951 1211.37 567.951C1210.75 567.951 1210.25 568.451 1210.25 569.068Z" fill="white" fill-opacity="0.15"/>
<path d="M1198.67 743.061C1198.82 741.852 1198.95 741.732 1200.18 741.55C1198.98 741.399 1198.86 741.278 1198.67 740.04C1198.52 741.248 1198.4 741.369 1197.16 741.55C1198.37 741.701 1198.49 741.852 1198.67 743.061Z" fill="white" fill-opacity="0.1"/>
<path d="M1111.15 600.148C1111.3 598.94 1111.42 598.819 1112.66 598.638C1111.45 598.487 1111.33 598.366 1111.15 597.128C1111 598.336 1110.88 598.457 1109.64 598.638C1110.85 598.789 1110.97 598.94 1111.15 600.148Z" fill="white" fill-opacity="0.1"/>
<path d="M1055.51 652.768C1055.66 651.56 1055.78 651.439 1057.02 651.258C1055.81 651.107 1055.69 650.986 1055.51 649.747C1055.36 650.956 1055.24 651.076 1054 651.258C1055.21 651.409 1055.33 651.56 1055.51 652.768Z" fill="white" fill-opacity="0.1"/>
<path d="M1141.3 764.957C1141.45 766.165 1141.57 766.286 1142.81 766.467C1141.6 766.618 1141.48 766.739 1141.3 767.977C1141.15 766.769 1141.03 766.648 1139.79 766.467C1141 766.316 1141.12 766.165 1141.3 764.957Z" fill="white" fill-opacity="0.1"/>
<path d="M1045.06 773.294C1045.21 774.502 1045.33 774.623 1046.57 774.804C1045.36 774.956 1045.24 775.076 1045.06 776.315C1044.91 775.106 1044.79 774.986 1043.55 774.804C1044.76 774.654 1044.88 774.502 1045.06 773.294Z" fill="white" fill-opacity="0.1"/>
<path d="M845.764 707C845.915 708.208 846.036 708.329 847.275 708.51C846.066 708.661 845.945 708.782 845.764 710.02C845.613 708.812 845.492 708.691 844.253 708.51C845.462 708.359 845.583 708.208 845.764 707Z" fill="white" fill-opacity="0.1"/>
<path d="M822.059 807.251C822.059 806.634 822.559 806.134 823.177 806.134C823.794 806.134 824.295 806.634 824.295 807.251C824.295 807.869 823.794 808.369 823.177 808.369C822.559 808.369 822.059 807.869 822.059 807.251Z" fill="white" fill-opacity="0.1"/>
<path d="M1078.77 882.712C1078.77 882.095 1079.27 881.594 1079.89 881.594C1080.51 881.594 1081.01 882.095 1081.01 882.712C1081.01 883.329 1080.51 883.829 1079.89 883.829C1079.27 883.829 1078.77 883.329 1078.77 882.712Z" fill="white" fill-opacity="0.1"/>
<path d="M1105.4 839.433C1105.4 838.816 1105.91 838.315 1106.52 838.315C1107.14 838.315 1107.64 838.816 1107.64 839.433C1107.64 840.05 1107.14 840.55 1106.52 840.55C1105.91 840.55 1105.4 840.05 1105.4 839.433Z" fill="white" fill-opacity="0.1"/>
<path d="M1070.62 750.185C1070.62 749.568 1071.12 749.068 1071.73 749.068C1072.35 749.068 1072.85 749.568 1072.85 750.185C1072.85 750.803 1072.35 751.303 1071.73 751.303C1071.12 751.303 1070.62 750.803 1070.62 750.185Z" fill="white" fill-opacity="0.1"/>
<path d="M1050.6 858.668C1050.6 858.05 1051.1 857.55 1051.71 857.55C1052.33 857.55 1052.83 858.05 1052.83 858.668C1052.83 859.285 1052.33 859.785 1051.71 859.785C1051.1 859.785 1050.6 859.285 1050.6 858.668Z" fill="white" fill-opacity="0.1"/>
<path d="M1066.27 815.183C1067.28 814.737 1068.46 815.192 1068.9 816.199C1069.35 817.205 1068.89 818.383 1067.89 818.828C1066.88 819.274 1065.7 818.819 1065.26 817.813C1064.81 816.806 1065.27 815.629 1066.27 815.183Z" fill="white" fill-opacity="0.15"/>
<path d="M919.569 820.728C919.569 819.627 920.462 818.735 921.563 818.735C922.665 818.735 923.558 819.627 923.558 820.728C923.558 821.829 922.665 822.722 921.563 822.722C920.462 822.722 919.569 821.829 919.569 820.728Z" fill="white" fill-opacity="0.15"/>
<path d="M985.708 853.695C986.487 852.917 987.75 852.917 988.529 853.695C989.308 854.474 989.308 855.736 988.529 856.514C987.75 857.293 986.487 857.293 985.708 856.514C984.929 855.736 984.929 854.474 985.708 853.695Z" fill="white" fill-opacity="0.15"/>
<path d="M923.672 751.258C923.823 752.466 923.944 752.587 925.183 752.769C923.974 752.92 923.853 753.04 923.672 754.279C923.521 753.071 923.4 752.95 922.161 752.769C923.369 752.618 923.49 752.466 923.672 751.258Z" fill="white" fill-opacity="0.1"/>
<path d="M836.146 894.171C836.298 895.379 836.418 895.5 837.657 895.681C836.449 895.832 836.328 895.953 836.146 897.191C835.995 895.983 835.875 895.862 834.636 895.681C835.844 895.53 835.965 895.379 836.146 894.171Z" fill="white" fill-opacity="0.1"/>
<path d="M782.511 741.031C782.662 742.239 782.782 742.36 784.021 742.541C782.813 742.692 782.692 742.813 782.511 744.052C782.359 742.843 782.239 742.723 781 742.541C782.208 742.39 782.329 742.239 782.511 741.031Z" fill="white" fill-opacity="0.1"/>
<path d="M606.271 79.4219V88H605.188V80.7754L603.002 81.5723V80.5938L606.102 79.4219H606.271ZM611.041 83.2012H611.814C612.193 83.2012 612.506 83.1387 612.752 83.0137C613.002 82.8848 613.188 82.7109 613.309 82.4922C613.434 82.2695 613.496 82.0195 613.496 81.7422C613.496 81.4141 613.441 81.1387 613.332 80.916C613.223 80.6934 613.059 80.5254 612.84 80.4121C612.621 80.2988 612.344 80.2422 612.008 80.2422C611.703 80.2422 611.434 80.3027 611.199 80.4238C610.969 80.541 610.787 80.709 610.654 80.9277C610.525 81.1465 610.461 81.4043 610.461 81.7012H609.377C609.377 81.2676 609.486 80.873 609.705 80.5176C609.924 80.1621 610.23 79.8789 610.625 79.668C611.023 79.457 611.484 79.3516 612.008 79.3516C612.523 79.3516 612.975 79.4434 613.361 79.627C613.748 79.8066 614.049 80.0762 614.264 80.4355C614.479 80.791 614.586 81.2344 614.586 81.7656C614.586 81.9805 614.535 82.2109 614.434 82.457C614.336 82.6992 614.182 82.9258 613.971 83.1367C613.764 83.3477 613.494 83.5215 613.162 83.6582C612.83 83.791 612.432 83.8574 611.967 83.8574H611.041V83.2012ZM611.041 84.0918V83.4414H611.967C612.51 83.4414 612.959 83.5059 613.314 83.6348C613.67 83.7637 613.949 83.9355 614.152 84.1504C614.359 84.3652 614.504 84.6016 614.586 84.8594C614.672 85.1133 614.715 85.3672 614.715 85.6211C614.715 86.0195 614.646 86.373 614.51 86.6816C614.377 86.9902 614.188 87.252 613.941 87.4668C613.699 87.6816 613.414 87.8438 613.086 87.9531C612.758 88.0625 612.4 88.1172 612.014 88.1172C611.643 88.1172 611.293 88.0645 610.965 87.959C610.641 87.8535 610.354 87.7012 610.104 87.502C609.854 87.2988 609.658 87.0508 609.518 86.7578C609.377 86.4609 609.307 86.123 609.307 85.7441H610.391C610.391 86.041 610.455 86.3008 610.584 86.5234C610.717 86.7461 610.904 86.9199 611.146 87.0449C611.393 87.166 611.682 87.2266 612.014 87.2266C612.346 87.2266 612.631 87.1699 612.869 87.0566C613.111 86.9395 613.297 86.7637 613.426 86.5293C613.559 86.2949 613.625 86 613.625 85.6445C613.625 85.2891 613.551 84.998 613.402 84.7715C613.254 84.541 613.043 84.3711 612.77 84.2617C612.5 84.1484 612.182 84.0918 611.814 84.0918H611.041ZM623.299 86.7695V79H624.389V88H623.393L623.299 86.7695ZM619.033 84.9004V84.7773C619.033 84.293 619.092 83.8535 619.209 83.459C619.33 83.0605 619.5 82.7188 619.719 82.4336C619.941 82.1484 620.205 81.9297 620.51 81.7773C620.818 81.6211 621.162 81.543 621.541 81.543C621.939 81.543 622.287 81.6133 622.584 81.7539C622.885 81.8906 623.139 82.0918 623.346 82.3574C623.557 82.6191 623.723 82.9355 623.844 83.3066C623.965 83.6777 624.049 84.0977 624.096 84.5664V85.1055C624.053 85.5703 623.969 85.9883 623.844 86.3594C623.723 86.7305 623.557 87.0469 623.346 87.3086C623.139 87.5703 622.885 87.7715 622.584 87.9121C622.283 88.0488 621.932 88.1172 621.529 88.1172C621.158 88.1172 620.818 88.0371 620.51 87.877C620.205 87.7168 619.941 87.4922 619.719 87.2031C619.5 86.9141 619.33 86.5742 619.209 86.1836C619.092 85.7891 619.033 85.3613 619.033 84.9004ZM620.123 84.7773V84.9004C620.123 85.2168 620.154 85.5137 620.217 85.791C620.283 86.0684 620.385 86.3125 620.521 86.5234C620.658 86.7344 620.832 86.9004 621.043 87.0215C621.254 87.1387 621.506 87.1973 621.799 87.1973C622.158 87.1973 622.453 87.1211 622.684 86.9688C622.918 86.8164 623.105 86.6152 623.246 86.3652C623.387 86.1152 623.496 85.8438 623.574 85.5508V84.1387C623.527 83.9238 623.459 83.7168 623.369 83.5176C623.283 83.3145 623.17 83.1348 623.029 82.9785C622.893 82.8184 622.723 82.6914 622.52 82.5977C622.32 82.5039 622.084 82.457 621.811 82.457C621.514 82.457 621.258 82.5195 621.043 82.6445C620.832 82.7656 620.658 82.9336 620.521 83.1484C620.385 83.3594 620.283 83.6055 620.217 83.8867C620.154 84.1641 620.123 84.4609 620.123 84.7773ZM628.707 88.1172C628.266 88.1172 627.865 88.043 627.506 87.8945C627.15 87.7422 626.844 87.5293 626.586 87.2559C626.332 86.9824 626.137 86.6582 626 86.2832C625.863 85.9082 625.795 85.498 625.795 85.0527V84.8066C625.795 84.291 625.871 83.832 626.023 83.4297C626.176 83.0234 626.383 82.6797 626.645 82.3984C626.906 82.1172 627.203 81.9043 627.535 81.7598C627.867 81.6152 628.211 81.543 628.566 81.543C629.02 81.543 629.41 81.6211 629.738 81.7773C630.07 81.9336 630.342 82.1523 630.553 82.4336C630.764 82.7109 630.92 83.0391 631.021 83.418C631.123 83.793 631.174 84.2031 631.174 84.6484V85.1348H626.439V84.25H630.09V84.168C630.074 83.8867 630.016 83.6133 629.914 83.3477C629.816 83.082 629.66 82.8633 629.445 82.6914C629.23 82.5195 628.938 82.4336 628.566 82.4336C628.32 82.4336 628.094 82.4863 627.887 82.5918C627.68 82.6934 627.502 82.8457 627.354 83.0488C627.205 83.252 627.09 83.5 627.008 83.793C626.926 84.0859 626.885 84.4238 626.885 84.8066V85.0527C626.885 85.3535 626.926 85.6367 627.008 85.9023C627.094 86.1641 627.217 86.3945 627.377 86.5938C627.541 86.793 627.738 86.9492 627.969 87.0625C628.203 87.1758 628.469 87.2324 628.766 87.2324C629.148 87.2324 629.473 87.1543 629.738 86.998C630.004 86.8418 630.236 86.6328 630.436 86.3711L631.092 86.8926C630.955 87.0996 630.781 87.2969 630.57 87.4844C630.359 87.6719 630.1 87.8242 629.791 87.9414C629.486 88.0586 629.125 88.1172 628.707 88.1172ZM638.738 80.2246L635.914 88H634.76L638.012 79.4688H638.756L638.738 80.2246ZM641.105 88L638.275 80.2246L638.258 79.4688H639.002L642.266 88H641.105ZM640.959 84.8418V85.7676H636.166V84.8418H640.959ZM643.238 79H644.328V86.7695L644.234 88H643.238V79ZM648.611 84.7773V84.9004C648.611 85.3613 648.557 85.7891 648.447 86.1836C648.338 86.5742 648.178 86.9141 647.967 87.2031C647.756 87.4922 647.498 87.7168 647.193 87.877C646.889 88.0371 646.539 88.1172 646.145 88.1172C645.742 88.1172 645.389 88.0488 645.084 87.9121C644.783 87.7715 644.529 87.5703 644.322 87.3086C644.115 87.0469 643.949 86.7305 643.824 86.3594C643.703 85.9883 643.619 85.5703 643.572 85.1055V84.5664C643.619 84.0977 643.703 83.6777 643.824 83.3066C643.949 82.9355 644.115 82.6191 644.322 82.3574C644.529 82.0918 644.783 81.8906 645.084 81.7539C645.385 81.6133 645.734 81.543 646.133 81.543C646.531 81.543 646.885 81.6211 647.193 81.7773C647.502 81.9297 647.76 82.1484 647.967 82.4336C648.178 82.7188 648.338 83.0605 648.447 83.459C648.557 83.8535 648.611 84.293 648.611 84.7773ZM647.521 84.9004V84.7773C647.521 84.4609 647.492 84.1641 647.434 83.8867C647.375 83.6055 647.281 83.3594 647.152 83.1484C647.023 82.9336 646.854 82.7656 646.643 82.6445C646.432 82.5195 646.172 82.457 645.863 82.457C645.59 82.457 645.352 82.5039 645.148 82.5977C644.949 82.6914 644.779 82.8184 644.639 82.9785C644.498 83.1348 644.383 83.3145 644.293 83.5176C644.207 83.7168 644.143 83.9238 644.1 84.1387V85.5508C644.162 85.8242 644.264 86.0879 644.404 86.3418C644.549 86.5918 644.74 86.7969 644.979 86.957C645.221 87.1172 645.52 87.1973 645.875 87.1973C646.168 87.1973 646.418 87.1387 646.625 87.0215C646.836 86.9004 647.006 86.7344 647.135 86.5234C647.268 86.3125 647.365 86.0684 647.428 85.791C647.49 85.5137 647.521 85.2168 647.521 84.9004ZM651.066 82.6562V88H649.982V81.6602H651.037L651.066 82.6562ZM653.047 81.625L653.041 82.6328C652.951 82.6133 652.865 82.6016 652.783 82.5977C652.705 82.5898 652.615 82.5859 652.514 82.5859C652.264 82.5859 652.043 82.625 651.852 82.7031C651.66 82.7812 651.498 82.8906 651.365 83.0312C651.232 83.1719 651.127 83.3398 651.049 83.5352C650.975 83.7266 650.926 83.9375 650.902 84.168L650.598 84.3438C650.598 83.9609 650.635 83.6016 650.709 83.2656C650.787 82.9297 650.906 82.6328 651.066 82.375C651.227 82.1133 651.43 81.9102 651.676 81.7656C651.926 81.6172 652.223 81.543 652.566 81.543C652.645 81.543 652.734 81.5527 652.836 81.5723C652.938 81.5879 653.008 81.6055 653.047 81.625ZM655.227 81.6602V88H654.137V81.6602H655.227ZM654.055 79.9785C654.055 79.8027 654.107 79.6543 654.213 79.5332C654.322 79.4121 654.482 79.3516 654.693 79.3516C654.9 79.3516 655.059 79.4121 655.168 79.5332C655.281 79.6543 655.338 79.8027 655.338 79.9785C655.338 80.1465 655.281 80.291 655.168 80.4121C655.059 80.5293 654.9 80.5879 654.693 80.5879C654.482 80.5879 654.322 80.5293 654.213 80.4121C654.107 80.291 654.055 80.1465 654.055 79.9785ZM658.145 79V88H657.055V79H658.145ZM660.869 86.7109V87.584C660.869 87.9395 660.779 88.3145 660.6 88.709C660.42 89.1074 660.168 89.4395 659.844 89.7051L659.229 89.2773C659.354 89.1055 659.459 88.9297 659.545 88.75C659.631 88.5742 659.695 88.3906 659.738 88.1992C659.785 88.0117 659.809 87.8125 659.809 87.6016V86.7109H660.869ZM670.701 87.1094V88H665.117V87.2207L667.912 84.1094C668.256 83.7266 668.521 83.4023 668.709 83.1367C668.9 82.8672 669.033 82.627 669.107 82.416C669.186 82.2012 669.225 81.9824 669.225 81.7598C669.225 81.4785 669.166 81.2246 669.049 80.998C668.936 80.7676 668.768 80.584 668.545 80.4473C668.322 80.3105 668.053 80.2422 667.736 80.2422C667.357 80.2422 667.041 80.3164 666.787 80.4648C666.537 80.6094 666.35 80.8125 666.225 81.0742C666.1 81.3359 666.037 81.6367 666.037 81.9766H664.953C664.953 81.4961 665.059 81.0566 665.27 80.6582C665.48 80.2598 665.793 79.9434 666.207 79.709C666.621 79.4707 667.131 79.3516 667.736 79.3516C668.275 79.3516 668.736 79.4473 669.119 79.6387C669.502 79.8262 669.795 80.0918 669.998 80.4355C670.205 80.7754 670.309 81.1738 670.309 81.6309C670.309 81.8809 670.266 82.1348 670.18 82.3926C670.098 82.6465 669.982 82.9004 669.834 83.1543C669.689 83.4082 669.52 83.6582 669.324 83.9043C669.133 84.1504 668.928 84.3926 668.709 84.6309L666.424 87.1094H670.701ZM677.217 83.0547V84.3555C677.217 85.0547 677.154 85.6445 677.029 86.125C676.904 86.6055 676.725 86.9922 676.49 87.2852C676.256 87.5781 675.973 87.791 675.641 87.9238C675.312 88.0527 674.941 88.1172 674.527 88.1172C674.199 88.1172 673.896 88.0762 673.619 87.9941C673.342 87.9121 673.092 87.7812 672.869 87.6016C672.65 87.418 672.463 87.1797 672.307 86.8867C672.15 86.5938 672.031 86.2383 671.949 85.8203C671.867 85.4023 671.826 84.9141 671.826 84.3555V83.0547C671.826 82.3555 671.889 81.7695 672.014 81.2969C672.143 80.8242 672.324 80.4453 672.559 80.1602C672.793 79.8711 673.074 79.6641 673.402 79.5391C673.734 79.4141 674.105 79.3516 674.516 79.3516C674.848 79.3516 675.152 79.3926 675.43 79.4746C675.711 79.5527 675.961 79.6797 676.18 79.8555C676.398 80.0273 676.584 80.2578 676.736 80.5469C676.893 80.832 677.012 81.1816 677.094 81.5957C677.176 82.0098 677.217 82.4961 677.217 83.0547ZM676.127 84.5312V82.873C676.127 82.4902 676.104 82.1543 676.057 81.8652C676.014 81.5723 675.949 81.3223 675.863 81.1152C675.777 80.9082 675.668 80.7402 675.535 80.6113C675.406 80.4824 675.256 80.3887 675.084 80.3301C674.916 80.2676 674.727 80.2363 674.516 80.2363C674.258 80.2363 674.029 80.2852 673.83 80.3828C673.631 80.4766 673.463 80.627 673.326 80.834C673.193 81.041 673.092 81.3125 673.021 81.6484C672.951 81.9844 672.916 82.3926 672.916 82.873V84.5312C672.916 84.9141 672.938 85.252 672.98 85.5449C673.027 85.8379 673.096 86.0918 673.186 86.3066C673.275 86.5176 673.385 86.6914 673.514 86.8281C673.643 86.9648 673.791 87.0664 673.959 87.1328C674.131 87.1953 674.32 87.2266 674.527 87.2266C674.793 87.2266 675.025 87.1758 675.225 87.0742C675.424 86.9727 675.59 86.8145 675.723 86.5996C675.859 86.3809 675.961 86.1016 676.027 85.7617C676.094 85.418 676.127 85.0078 676.127 84.5312ZM684.201 87.1094V88H678.617V87.2207L681.412 84.1094C681.756 83.7266 682.021 83.4023 682.209 83.1367C682.4 82.8672 682.533 82.627 682.607 82.416C682.686 82.2012 682.725 81.9824 682.725 81.7598C682.725 81.4785 682.666 81.2246 682.549 80.998C682.436 80.7676 682.268 80.584 682.045 80.4473C681.822 80.3105 681.553 80.2422 681.236 80.2422C680.857 80.2422 680.541 80.3164 680.287 80.4648C680.037 80.6094 679.85 80.8125 679.725 81.0742C679.6 81.3359 679.537 81.6367 679.537 81.9766H678.453C678.453 81.4961 678.559 81.0566 678.77 80.6582C678.98 80.2598 679.293 79.9434 679.707 79.709C680.121 79.4707 680.631 79.3516 681.236 79.3516C681.775 79.3516 682.236 79.4473 682.619 79.6387C683.002 79.8262 683.295 80.0918 683.498 80.4355C683.705 80.7754 683.809 81.1738 683.809 81.6309C683.809 81.8809 683.766 82.1348 683.68 82.3926C683.598 82.6465 683.482 82.9004 683.334 83.1543C683.189 83.4082 683.02 83.6582 682.824 83.9043C682.633 84.1504 682.428 84.3926 682.209 84.6309L679.924 87.1094H684.201ZM690.951 87.1094V88H685.367V87.2207L688.162 84.1094C688.506 83.7266 688.771 83.4023 688.959 83.1367C689.15 82.8672 689.283 82.627 689.357 82.416C689.436 82.2012 689.475 81.9824 689.475 81.7598C689.475 81.4785 689.416 81.2246 689.299 80.998C689.186 80.7676 689.018 80.584 688.795 80.4473C688.572 80.3105 688.303 80.2422 687.986 80.2422C687.607 80.2422 687.291 80.3164 687.037 80.4648C686.787 80.6094 686.6 80.8125 686.475 81.0742C686.35 81.3359 686.287 81.6367 686.287 81.9766H685.203C685.203 81.4961 685.309 81.0566 685.52 80.6582C685.73 80.2598 686.043 79.9434 686.457 79.709C686.871 79.4707 687.381 79.3516 687.986 79.3516C688.525 79.3516 688.986 79.4473 689.369 79.6387C689.752 79.8262 690.045 80.0918 690.248 80.4355C690.455 80.7754 690.559 81.1738 690.559 81.6309C690.559 81.8809 690.516 82.1348 690.43 82.3926C690.348 82.6465 690.232 82.9004 690.084 83.1543C689.939 83.4082 689.77 83.6582 689.574 83.9043C689.383 84.1504 689.178 84.3926 688.959 84.6309L686.674 87.1094H690.951Z" fill="#BEBEBF"/>
<rect x="700" y="83" width="20" height="1" fill="#EAEAEA"/>
<path d="M606.299 548.109V549H600.715V548.221L603.51 545.109C603.854 544.727 604.119 544.402 604.307 544.137C604.498 543.867 604.631 543.627 604.705 543.416C604.783 543.201 604.822 542.982 604.822 542.76C604.822 542.479 604.764 542.225 604.646 541.998C604.533 541.768 604.365 541.584 604.143 541.447C603.92 541.311 603.65 541.242 603.334 541.242C602.955 541.242 602.639 541.316 602.385 541.465C602.135 541.609 601.947 541.812 601.822 542.074C601.697 542.336 601.635 542.637 601.635 542.977H600.551C600.551 542.496 600.656 542.057 600.867 541.658C601.078 541.26 601.391 540.943 601.805 540.709C602.219 540.471 602.729 540.352 603.334 540.352C603.873 540.352 604.334 540.447 604.717 540.639C605.1 540.826 605.393 541.092 605.596 541.436C605.803 541.775 605.906 542.174 605.906 542.631C605.906 542.881 605.863 543.135 605.777 543.393C605.695 543.646 605.58 543.9 605.432 544.154C605.287 544.408 605.117 544.658 604.922 544.904C604.73 545.15 604.525 545.393 604.307 545.631L602.021 548.109H606.299ZM612.814 544.055V545.355C612.814 546.055 612.752 546.645 612.627 547.125C612.502 547.605 612.322 547.992 612.088 548.285C611.854 548.578 611.57 548.791 611.238 548.924C610.91 549.053 610.539 549.117 610.125 549.117C609.797 549.117 609.494 549.076 609.217 548.994C608.939 548.912 608.689 548.781 608.467 548.602C608.248 548.418 608.061 548.18 607.904 547.887C607.748 547.594 607.629 547.238 607.547 546.82C607.465 546.402 607.424 545.914 607.424 545.355V544.055C607.424 543.355 607.486 542.77 607.611 542.297C607.74 541.824 607.922 541.445 608.156 541.16C608.391 540.871 608.672 540.664 609 540.539C609.332 540.414 609.703 540.352 610.113 540.352C610.445 540.352 610.75 540.393 611.027 540.475C611.309 540.553 611.559 540.68 611.777 540.855C611.996 541.027 612.182 541.258 612.334 541.547C612.49 541.832 612.609 542.182 612.691 542.596C612.773 543.01 612.814 543.496 612.814 544.055ZM611.725 545.531V543.873C611.725 543.49 611.701 543.154 611.654 542.865C611.611 542.572 611.547 542.322 611.461 542.115C611.375 541.908 611.266 541.74 611.133 541.611C611.004 541.482 610.854 541.389 610.682 541.33C610.514 541.268 610.324 541.236 610.113 541.236C609.855 541.236 609.627 541.285 609.428 541.383C609.229 541.477 609.061 541.627 608.924 541.834C608.791 542.041 608.689 542.312 608.619 542.648C608.549 542.984 608.514 543.393 608.514 543.873V545.531C608.514 545.914 608.535 546.252 608.578 546.545C608.625 546.838 608.693 547.092 608.783 547.307C608.873 547.518 608.982 547.691 609.111 547.828C609.24 547.965 609.389 548.066 609.557 548.133C609.729 548.195 609.918 548.227 610.125 548.227C610.391 548.227 610.623 548.176 610.822 548.074C611.021 547.973 611.188 547.814 611.32 547.6C611.457 547.381 611.559 547.102 611.625 546.762C611.691 546.418 611.725 546.008 611.725 545.531ZM621.299 547.77V540H622.389V549H621.393L621.299 547.77ZM617.033 545.9V545.777C617.033 545.293 617.092 544.854 617.209 544.459C617.33 544.061 617.5 543.719 617.719 543.434C617.941 543.148 618.205 542.93 618.51 542.777C618.818 542.621 619.162 542.543 619.541 542.543C619.939 542.543 620.287 542.613 620.584 542.754C620.885 542.891 621.139 543.092 621.346 543.357C621.557 543.619 621.723 543.936 621.844 544.307C621.965 544.678 622.049 545.098 622.096 545.566V546.105C622.053 546.57 621.969 546.988 621.844 547.359C621.723 547.73 621.557 548.047 621.346 548.309C621.139 548.57 620.885 548.771 620.584 548.912C620.283 549.049 619.932 549.117 619.529 549.117C619.158 549.117 618.818 549.037 618.51 548.877C618.205 548.717 617.941 548.492 617.719 548.203C617.5 547.914 617.33 547.574 617.209 547.184C617.092 546.789 617.033 546.361 617.033 545.9ZM618.123 545.777V545.9C618.123 546.217 618.154 546.514 618.217 546.791C618.283 547.068 618.385 547.312 618.521 547.523C618.658 547.734 618.832 547.9 619.043 548.021C619.254 548.139 619.506 548.197 619.799 548.197C620.158 548.197 620.453 548.121 620.684 547.969C620.918 547.816 621.105 547.615 621.246 547.365C621.387 547.115 621.496 546.844 621.574 546.551V545.139C621.527 544.924 621.459 544.717 621.369 544.518C621.283 544.314 621.17 544.135 621.029 543.979C620.893 543.818 620.723 543.691 620.52 543.598C620.32 543.504 620.084 543.457 619.811 543.457C619.514 543.457 619.258 543.52 619.043 543.645C618.832 543.766 618.658 543.934 618.521 544.148C618.385 544.359 618.283 544.605 618.217 544.887C618.154 545.164 618.123 545.461 618.123 545.777ZM626.707 549.117C626.266 549.117 625.865 549.043 625.506 548.895C625.15 548.742 624.844 548.529 624.586 548.256C624.332 547.982 624.137 547.658 624 547.283C623.863 546.908 623.795 546.498 623.795 546.053V545.807C623.795 545.291 623.871 544.832 624.023 544.43C624.176 544.023 624.383 543.68 624.645 543.398C624.906 543.117 625.203 542.904 625.535 542.76C625.867 542.615 626.211 542.543 626.566 542.543C627.02 542.543 627.41 542.621 627.738 542.777C628.07 542.934 628.342 543.152 628.553 543.434C628.764 543.711 628.92 544.039 629.021 544.418C629.123 544.793 629.174 545.203 629.174 545.648V546.135H624.439V545.25H628.09V545.168C628.074 544.887 628.016 544.613 627.914 544.348C627.816 544.082 627.66 543.863 627.445 543.691C627.23 543.52 626.938 543.434 626.566 543.434C626.32 543.434 626.094 543.486 625.887 543.592C625.68 543.693 625.502 543.846 625.354 544.049C625.205 544.252 625.09 544.5 625.008 544.793C624.926 545.086 624.885 545.424 624.885 545.807V546.053C624.885 546.354 624.926 546.637 625.008 546.902C625.094 547.164 625.217 547.395 625.377 547.594C625.541 547.793 625.738 547.949 625.969 548.062C626.203 548.176 626.469 548.232 626.766 548.232C627.148 548.232 627.473 548.154 627.738 547.998C628.004 547.842 628.236 547.633 628.436 547.371L629.092 547.893C628.955 548.1 628.781 548.297 628.57 548.484C628.359 548.672 628.1 548.824 627.791 548.941C627.486 549.059 627.125 549.117 626.707 549.117ZM633.938 540.469H635.033L637.828 547.424L640.617 540.469H641.719L638.25 549H637.395L633.938 540.469ZM633.58 540.469H634.547L634.705 545.672V549H633.58V540.469ZM641.104 540.469H642.07V549H640.945V545.672L641.104 540.469ZM647.631 547.916V544.652C647.631 544.402 647.58 544.186 647.479 544.002C647.381 543.814 647.232 543.67 647.033 543.568C646.834 543.467 646.588 543.416 646.295 543.416C646.021 543.416 645.781 543.463 645.574 543.557C645.371 543.65 645.211 543.773 645.094 543.926C644.98 544.078 644.924 544.242 644.924 544.418H643.84C643.84 544.191 643.898 543.967 644.016 543.744C644.133 543.521 644.301 543.32 644.52 543.141C644.742 542.957 645.008 542.812 645.316 542.707C645.629 542.598 645.977 542.543 646.359 542.543C646.82 542.543 647.227 542.621 647.578 542.777C647.934 542.934 648.211 543.17 648.41 543.486C648.613 543.799 648.715 544.191 648.715 544.664V547.617C648.715 547.828 648.732 548.053 648.768 548.291C648.807 548.529 648.863 548.734 648.938 548.906V549H647.807C647.752 548.875 647.709 548.709 647.678 548.502C647.646 548.291 647.631 548.096 647.631 547.916ZM647.818 545.156L647.83 545.918H646.734C646.426 545.918 646.15 545.943 645.908 545.994C645.666 546.041 645.463 546.113 645.299 546.211C645.135 546.309 645.01 546.432 644.924 546.58C644.838 546.725 644.795 546.895 644.795 547.09C644.795 547.289 644.84 547.471 644.93 547.635C645.02 547.799 645.154 547.93 645.334 548.027C645.518 548.121 645.742 548.168 646.008 548.168C646.34 548.168 646.633 548.098 646.887 547.957C647.141 547.816 647.342 547.645 647.49 547.441C647.643 547.238 647.725 547.041 647.736 546.85L648.199 547.371C648.172 547.535 648.098 547.717 647.977 547.916C647.855 548.115 647.693 548.307 647.49 548.49C647.291 548.67 647.053 548.82 646.775 548.941C646.502 549.059 646.193 549.117 645.85 549.117C645.42 549.117 645.043 549.033 644.719 548.865C644.398 548.697 644.148 548.473 643.969 548.191C643.793 547.906 643.705 547.588 643.705 547.236C643.705 546.896 643.771 546.598 643.904 546.34C644.037 546.078 644.229 545.861 644.479 545.689C644.729 545.514 645.029 545.381 645.381 545.291C645.732 545.201 646.125 545.156 646.559 545.156H647.818ZM651.598 542.66V549H650.508V542.66H651.598ZM650.426 540.979C650.426 540.803 650.479 540.654 650.584 540.533C650.693 540.412 650.854 540.352 651.064 540.352C651.271 540.352 651.43 540.412 651.539 540.533C651.652 540.654 651.709 540.803 651.709 540.979C651.709 541.146 651.652 541.291 651.539 541.412C651.43 541.529 651.271 541.588 651.064 541.588C650.854 541.588 650.693 541.529 650.584 541.412C650.479 541.291 650.426 541.146 650.426 540.979ZM653.051 545.9V545.766C653.051 545.309 653.117 544.885 653.25 544.494C653.383 544.1 653.574 543.758 653.824 543.469C654.074 543.176 654.377 542.949 654.732 542.789C655.088 542.625 655.486 542.543 655.928 542.543C656.373 542.543 656.773 542.625 657.129 542.789C657.488 542.949 657.793 543.176 658.043 543.469C658.297 543.758 658.49 544.1 658.623 544.494C658.756 544.885 658.822 545.309 658.822 545.766V545.9C658.822 546.357 658.756 546.781 658.623 547.172C658.49 547.562 658.297 547.904 658.043 548.197C657.793 548.486 657.49 548.713 657.135 548.877C656.783 549.037 656.385 549.117 655.939 549.117C655.494 549.117 655.094 549.037 654.738 548.877C654.383 548.713 654.078 548.486 653.824 548.197C653.574 547.904 653.383 547.562 653.25 547.172C653.117 546.781 653.051 546.357 653.051 545.9ZM654.135 545.766V545.9C654.135 546.217 654.172 546.516 654.246 546.797C654.32 547.074 654.432 547.32 654.58 547.535C654.732 547.75 654.922 547.92 655.148 548.045C655.375 548.166 655.639 548.227 655.939 548.227C656.236 548.227 656.496 548.166 656.719 548.045C656.945 547.92 657.133 547.75 657.281 547.535C657.43 547.32 657.541 547.074 657.615 546.797C657.693 546.516 657.732 546.217 657.732 545.9V545.766C657.732 545.453 657.693 545.158 657.615 544.881C657.541 544.6 657.428 544.352 657.275 544.137C657.127 543.918 656.939 543.746 656.713 543.621C656.49 543.496 656.229 543.434 655.928 543.434C655.631 543.434 655.369 543.496 655.143 543.621C654.92 543.746 654.732 543.918 654.58 544.137C654.432 544.352 654.32 544.6 654.246 544.881C654.172 545.158 654.135 545.453 654.135 545.766ZM661.166 547.711V548.584C661.166 548.939 661.076 549.314 660.896 549.709C660.717 550.107 660.465 550.439 660.141 550.705L659.525 550.277C659.65 550.105 659.756 549.93 659.842 549.75C659.928 549.574 659.992 549.391 660.035 549.199C660.082 549.012 660.105 548.812 660.105 548.602V547.711H661.166ZM670.998 548.109V549H665.414V548.221L668.209 545.109C668.553 544.727 668.818 544.402 669.006 544.137C669.197 543.867 669.33 543.627 669.404 543.416C669.482 543.201 669.521 542.982 669.521 542.76C669.521 542.479 669.463 542.225 669.346 541.998C669.232 541.768 669.064 541.584 668.842 541.447C668.619 541.311 668.35 541.242 668.033 541.242C667.654 541.242 667.338 541.316 667.084 541.465C666.834 541.609 666.646 541.812 666.521 542.074C666.396 542.336 666.334 542.637 666.334 542.977H665.25C665.25 542.496 665.355 542.057 665.566 541.658C665.777 541.26 666.09 540.943 666.504 540.709C666.918 540.471 667.428 540.352 668.033 540.352C668.572 540.352 669.033 540.447 669.416 540.639C669.799 540.826 670.092 541.092 670.295 541.436C670.502 541.775 670.605 542.174 670.605 542.631C670.605 542.881 670.562 543.135 670.477 543.393C670.395 543.646 670.279 543.9 670.131 544.154C669.986 544.408 669.816 544.658 669.621 544.904C669.43 545.15 669.225 545.393 669.006 545.631L666.721 548.109H670.998ZM677.514 544.055V545.355C677.514 546.055 677.451 546.645 677.326 547.125C677.201 547.605 677.021 547.992 676.787 548.285C676.553 548.578 676.27 548.791 675.938 548.924C675.609 549.053 675.238 549.117 674.824 549.117C674.496 549.117 674.193 549.076 673.916 548.994C673.639 548.912 673.389 548.781 673.166 548.602C672.947 548.418 672.76 548.18 672.604 547.887C672.447 547.594 672.328 547.238 672.246 546.82C672.164 546.402 672.123 545.914 672.123 545.355V544.055C672.123 543.355 672.186 542.77 672.311 542.297C672.439 541.824 672.621 541.445 672.855 541.16C673.09 540.871 673.371 540.664 673.699 540.539C674.031 540.414 674.402 540.352 674.812 540.352C675.145 540.352 675.449 540.393 675.727 540.475C676.008 540.553 676.258 540.68 676.477 540.855C676.695 541.027 676.881 541.258 677.033 541.547C677.189 541.832 677.309 542.182 677.391 542.596C677.473 543.01 677.514 543.496 677.514 544.055ZM676.424 545.531V543.873C676.424 543.49 676.4 543.154 676.354 542.865C676.311 542.572 676.246 542.322 676.16 542.115C676.074 541.908 675.965 541.74 675.832 541.611C675.703 541.482 675.553 541.389 675.381 541.33C675.213 541.268 675.023 541.236 674.812 541.236C674.555 541.236 674.326 541.285 674.127 541.383C673.928 541.477 673.76 541.627 673.623 541.834C673.49 542.041 673.389 542.312 673.318 542.648C673.248 542.984 673.213 543.393 673.213 543.873V545.531C673.213 545.914 673.234 546.252 673.277 546.545C673.324 546.838 673.393 547.092 673.482 547.307C673.572 547.518 673.682 547.691 673.811 547.828C673.939 547.965 674.088 548.066 674.256 548.133C674.428 548.195 674.617 548.227 674.824 548.227C675.09 548.227 675.322 548.176 675.521 548.074C675.721 547.973 675.887 547.814 676.02 547.6C676.156 547.381 676.258 547.102 676.324 546.762C676.391 546.418 676.424 546.008 676.424 545.531ZM684.498 548.109V549H678.914V548.221L681.709 545.109C682.053 544.727 682.318 544.402 682.506 544.137C682.697 543.867 682.83 543.627 682.904 543.416C682.982 543.201 683.021 542.982 683.021 542.76C683.021 542.479 682.963 542.225 682.846 541.998C682.732 541.768 682.564 541.584 682.342 541.447C682.119 541.311 681.85 541.242 681.533 541.242C681.154 541.242 680.838 541.316 680.584 541.465C680.334 541.609 680.146 541.812 680.021 542.074C679.896 542.336 679.834 542.637 679.834 542.977H678.75C678.75 542.496 678.855 542.057 679.066 541.658C679.277 541.26 679.59 540.943 680.004 540.709C680.418 540.471 680.928 540.352 681.533 540.352C682.072 540.352 682.533 540.447 682.916 540.639C683.299 540.826 683.592 541.092 683.795 541.436C684.002 541.775 684.105 542.174 684.105 542.631C684.105 542.881 684.062 543.135 683.977 543.393C683.895 543.646 683.779 543.9 683.631 544.154C683.486 544.408 683.316 544.658 683.121 544.904C682.93 545.15 682.725 545.393 682.506 545.631L680.221 548.109H684.498ZM691.248 548.109V549H685.664V548.221L688.459 545.109C688.803 544.727 689.068 544.402 689.256 544.137C689.447 543.867 689.58 543.627 689.654 543.416C689.732 543.201 689.771 542.982 689.771 542.76C689.771 542.479 689.713 542.225 689.596 541.998C689.482 541.768 689.314 541.584 689.092 541.447C688.869 541.311 688.6 541.242 688.283 541.242C687.904 541.242 687.588 541.316 687.334 541.465C687.084 541.609 686.896 541.812 686.771 542.074C686.646 542.336 686.584 542.637 686.584 542.977H685.5C685.5 542.496 685.605 542.057 685.816 541.658C686.027 541.26 686.34 540.943 686.754 540.709C687.168 540.471 687.678 540.352 688.283 540.352C688.822 540.352 689.283 540.447 689.666 540.639C690.049 540.826 690.342 541.092 690.545 541.436C690.752 541.775 690.855 542.174 690.855 542.631C690.855 542.881 690.812 543.135 690.727 543.393C690.645 543.646 690.529 543.9 690.381 544.154C690.236 544.408 690.066 544.658 689.871 544.904C689.68 545.15 689.475 545.393 689.256 545.631L686.971 548.109H691.248Z" fill="#BEBEBF"/>
<rect x="700" y="544" width="20" height="1" fill="#EAEAEA"/>
</g>
<defs>
<filter id="filter0_f_28_708" x="97.3321" y="-139.029" width="1304.05" height="1066.14" filterUnits="userSpaceOnUse" color-interpolation-filters="sRGB">
<feFlood flood-opacity="0" result="BackgroundImageFix"/>
<feBlend mode="normal" in="SourceGraphic" in2="BackgroundImageFix" result="shape"/>
<feGaussianBlur stdDeviation="194.334" result="effect1_foregroundBlur_28_708"/>
</filter>
<radialGradient id="paint0_radial_28_708" cx="0" cy="0" r="1" gradientUnits="userSpaceOnUse" gradientTransform="translate(360 450) rotate(180) scale(536 450)">
<stop stop-color="#727275"/>
<stop offset="1" stop-color="#2C2C31"/>
</radialGradient>
<clipPath id="clip0_28_708">
<rect width="1440" height="900" fill="white"/>
</clipPath>
<clipPath id="clip1_28_708">
<path d="M0 0H720V900H0V0Z" fill="white"/>
</clipPath>
</defs>
</svg>
